name Walk6.mot
datacolumns 19
datarows 22
range 1.59000000 1.61100000
endheader

                time	   L_ground_force_vx	   L_ground_force_vy	   L_ground_force_vz	   L_ground_force_px	   L_ground_force_py	   L_ground_force_pz	   R_ground_force_vx	   R_ground_force_vy	   R_ground_force_vz	   R_ground_force_px	   R_ground_force_py	   R_ground_force_pz	   L_ground_torque_x	   L_ground_torque_y	   L_ground_torque_z	   R_ground_torque_x	   R_ground_torque_y	   R_ground_torque_z	
          1.59000000	         21.85478564	        523.56961894	         33.53425261	         -0.33946283	          0.00000000	         -0.08301044	         -0.01711766	          0.25537115	          0.01238985	          0.00013040	          0.00000000	          0.00006218	          0.00000000	         -0.34445191	          0.00000000	          0.00000000	          0.00072687	          0.00000000	
          1.59100000	         22.14496746	        525.21514644	         33.68141486	         -0.33909871	          0.00000000	         -0.08315239	         -0.01876083	          0.26878421	          0.01254913	          0.00013594	          0.00000000	          0.00006471	          0.00000000	         -0.34346265	          0.00000000	          0.00000000	          0.00078334	          0.00000000	
          1.59200000	         22.44121074	        526.88174500	         33.82907712	         -0.33873976	          0.00000000	         -0.08329200	         -0.02047921	          0.28233363	          0.01267139	          0.00014143	          0.00000000	          0.00006721	          0.00000000	         -0.34256265	          0.00000000	          0.00000000	          0.00084181	          0.00000000	
          1.59300000	         22.74361898	        528.56912288	         33.97723160	         -0.33838600	          0.00000000	         -0.08342924	         -0.02227269	          0.29597611	          0.01275267	          0.00014684	          0.00000000	          0.00006967	          0.00000000	         -0.34175745	          0.00000000	          0.00000000	          0.00090224	          0.00000000	
          1.59400000	         23.05229053	        530.27699292	         34.12587293	         -0.33803743	          0.00000000	         -0.08356412	         -0.02414085	          0.30966397	          0.01278884	          0.00015215	          0.00000000	          0.00007207	          0.00000000	         -0.34105293	          0.00000000	          0.00000000	          0.00096457	          0.00000000	
          1.59500000	         23.36731847	        532.00507085	         34.27499733	         -0.33769408	          0.00000000	         -0.08369661	         -0.02608290	          0.32334489	          0.01277556	          0.00015733	          0.00000000	          0.00007439	          0.00000000	         -0.34045543	          0.00000000	          0.00000000	          0.00102870	          0.00000000	
          1.59600000	         23.68879052	        533.75307348	         34.42460198	         -0.33735593	          0.00000000	         -0.08382671	         -0.02809771	          0.33696172	          0.01270828	          0.00016234	          0.00000000	          0.00007662	          0.00000000	         -0.33997184	          0.00000000	          0.00000000	          0.00109454	          0.00000000	
          1.59700000	         24.01678900	        535.52071640	         34.57468445	         -0.33702301	          0.00000000	         -0.08395440	         -0.03018370	          0.35045228	          0.01258226	          0.00016715	          0.00000000	          0.00007874	          0.00000000	         -0.33960941	          0.00000000	          0.00000000	          0.00116198	          0.00000000	
          1.59800000	         24.35139076	        537.30771151	         34.72524236	         -0.33669529	          0.00000000	         -0.08407968	         -0.03233887	          0.36374911	          0.01239257	          0.00017171	          0.00000000	          0.00008073	          0.00000000	         -0.33937541	          0.00000000	          0.00000000	          0.00123088	          0.00000000	
          1.59900000	         24.69266713	        539.11376428	         34.87627327	         -0.33637278	          0.00000000	         -0.08420255	         -0.03456075	          0.37677930	          0.01213407	          0.00017598	          0.00000000	          0.00008258	          0.00000000	         -0.33927662	          0.00000000	          0.00000000	          0.00130111	          0.00000000	
          1.60000000	         25.04068381	        540.93857120	         35.02777477	         -0.33605547	          0.00000000	         -0.08432302	         -0.03684638	          0.38946425	          0.01180144	          0.00017993	          0.00000000	          0.00008425	          0.00000000	         -0.33931898	          0.00000000	          0.00000000	          0.00137249	          0.00000000	
          1.60100000	         25.39550072	        542.78181730	         35.17974483	         -0.33574334	          0.00000000	         -0.08444112	         -0.03919222	          0.40171951	          0.01138916	          0.00018350	          0.00000000	          0.00008574	          0.00000000	         -0.33950739	          0.00000000	          0.00000000	          0.00144483	          0.00000000	
          1.60200000	         25.75717200	        544.64317383	         35.33218202	         -0.33543637	          0.00000000	         -0.08455685	         -0.04159418	          0.41345452	          0.01089153	          0.00018664	          0.00000000	          0.00008701	          0.00000000	         -0.33984582	          0.00000000	          0.00000000	          0.00151793	          0.00000000	
          1.60300000	         26.12574609	        546.52229612	         35.48508539	         -0.33513454	          0.00000000	         -0.08467027	         -0.04404758	          0.42457247	          0.01030268	          0.00018931	          0.00000000	          0.00008803	          0.00000000	         -0.34033758	          0.00000000	          0.00000000	          0.00159156	          0.00000000	
          1.60400000	         26.50126603	        548.41882184	         35.63845416	         -0.33483782	          0.00000000	         -0.08478139	         -0.04654703	          0.43497011	          0.00961656	          0.00019144	          0.00000000	          0.00008879	          0.00000000	         -0.34098573	          0.00000000	          0.00000000	          0.00166545	          0.00000000	
          1.60500000	         26.88376989	        550.33236966	         35.79228721	         -0.33454618	          0.00000000	         -0.08489026	         -0.04908652	          0.44453757	          0.00882697	          0.00019297	          0.00000000	          0.00008925	          0.00000000	         -0.34179347	          0.00000000	          0.00000000	          0.00173933	          0.00000000	
          1.60600000	         27.27329111	        552.26253883	         35.94658251	         -0.33425959	          0.00000000	         -0.08499690	         -0.05165927	          0.45315819	          0.00792755	          0.00019386	          0.00000000	          0.00008938	          0.00000000	         -0.34276438	          0.00000000	          0.00000000	          0.00181289	          0.00000000	
          1.60700000	         27.66985884	        554.20890986	         36.10133656	         -0.33397801	          0.00000000	         -0.08510135	         -0.05425774	          0.46070837	          0.00691181	          0.00019402	          0.00000000	          0.00008916	          0.00000000	         -0.34390246	          0.00000000	          0.00000000	          0.00188580	          0.00000000	
          1.60800000	         28.07349807	        556.17104665	         36.25654361	         -0.33370139	          0.00000000	         -0.08520362	         -0.05687359	          0.46705747	          0.00577314	          0.00019340	          0.00000000	          0.00008855	          0.00000000	         -0.34521210	          0.00000000	          0.00000000	          0.00195770	          0.00000000	
          1.60900000	         28.48422944	        558.14849952	         36.41219485	         -0.33342969	          0.00000000	         -0.08530376	         -0.05949764	          0.47206766	          0.00450481	          0.00019192	          0.00000000	          0.00008752	          0.00000000	         -0.34669796	          0.00000000	          0.00000000	          0.00202819	          0.00000000	
          1.61000000	         28.90206887	        560.14080841	         36.56827739	         -0.33316286	          0.00000000	         -0.08540177	         -0.06211981	          0.47559382	          0.00310003	          0.00018952	          0.00000000	          0.00008603	          0.00000000	         -0.34836495	          0.00000000	          0.00000000	          0.00209686	          0.00000000	
          1.61100000	         29.32702679	        562.14750510	         36.72477337	         -0.33290085	          0.00000000	         -0.08549768	         -0.06472910	          0.47748349	          0.00155190	          0.00018610	          0.00000000	          0.00008405	          0.00000000	         -0.35021812	          0.00000000	          0.00000000	          0.00216325	          0.00000000	
